<?xml version="1.0" encoding="UTF-8" standalone="no"?>
<svg
   xmlns:dc="http://purl.org/dc/elements/1.1/"
   xmlns:cc="http://creativecommons.org/ns#"
   xmlns:rdf="http://www.w3.org/1999/02/22-rdf-syntax-ns#"
   xmlns:svg="http://www.w3.org/2000/svg"
   xmlns="http://www.w3.org/2000/svg"
   xmlns:sodipodi="http://sodipodi.sourceforge.net/DTD/sodipodi-0.dtd"
   xmlns:inkscape="http://www.inkscape.org/namespaces/inkscape"
   width="8.5in"
   height="11in"
   viewBox="-90 -90 816 1056"
   version="1.1"
   id="svg6"
   sodipodi:docname="plate.svg"
   inkscape:version="0.92.2 (5c3e80d, 2017-08-06)">
  <metadata
     id="metadata12">
    <rdf:RDF>
      <cc:Work
         rdf:about="">
        <dc:format>image/svg+xml</dc:format>
        <dc:type
           rdf:resource="http://purl.org/dc/dcmitype/StillImage" />
        <dc:title>OpenSCAD Model</dc:title>
      </cc:Work>
    </rdf:RDF>
  </metadata>
  <defs
     id="defs10" />
  <sodipodi:namedview
     pagecolor="#ffffff"
     bordercolor="#666666"
     borderopacity="1"
     objecttolerance="10"
     gridtolerance="10"
     guidetolerance="10"
     inkscape:pageopacity="0"
     inkscape:pageshadow="2"
     inkscape:window-width="3840"
     inkscape:window-height="2066"
     id="namedview8"
     showgrid="false"
     units="in"
     inkscape:zoom="0.65555556"
     inkscape:cx="-121.13394"
     inkscape:cy="252.12536"
     inkscape:window-x="-11"
     inkscape:window-y="-6"
     inkscape:window-maximized="1"
     inkscape:current-layer="svg6" />
  <title
     id="title2">OpenSCAD Model</title>
  <path
     d="m 385.59149,765.21448 41.37524,-10.6235 39.71755,-15.72548 37.43357,-20.57915 34.55887,-25.10854 31.1399,-29.2422 27.22885,-32.91402 22.8892,-36.06765 18.18822,-38.65172 13.20038,-40.62652 8.00428,-41.96069 2.68233,-42.63307 -2.68233,-42.63307 -8.00428,-41.9607 -13.20038,-40.62652 -18.18822,-38.65171 -22.8892,-36.06766 -27.22885,-32.91401 -31.1399,-29.24221 -34.55887,-25.10853 -37.43357,-20.57915 -39.71755,-15.72549 -41.37524,-10.623487 -42.38045,-5.3537 h -42.71728 l -42.38045,5.3537 -41.37524,10.623487 -39.71755,15.72549 -37.43358,20.57915 -34.55886,25.10853 -31.139908,29.24221 -27.228851,32.91401 -22.889197,36.06766 -18.1882208,38.65171 -13.200378,40.62652 -8.0042832,41.9607 -2.682331,42.63307 2.682331,42.63307 8.0042832,41.96069 13.200378,40.62652 18.1882208,38.65172 22.889197,36.06765 27.228851,32.91402 31.139908,29.2422 34.55886,25.10854 37.43358,20.57915 39.71755,15.72548 41.37524,10.6235 42.38045,5.3537 h 42.71728 z m -10.63522,-408.0242 -3.01757,-0.64138 -2.91364,-1.01443 -2.76321,-1.37197 -2.5697,-1.70721 -2.33537,-2.016 -2.06442,-2.29266 -1.76077,-2.53342 -1.4293,-2.73411 -1.07539,-2.89171 -0.7045,-3.0036 -0.32251,-3.06822 0.0647,-3.08447 0.45063,-3.05197 0.82965,-2.97146 1.19557,-2.8441 0.77129,-1.33568 -0.042,-0.0265 75.59044,-130.92661 0.0419,0.0227 0.7714,-1.33568 1.8652,-2.45745 2.15887,-2.20422 2.41776,-1.91622 2.63887,-1.59836 2.81839,-1.25481 2.95332,-0.89159 3.04214,-0.51477 3.08221,-0.12888 3.07427,0.25814 3.01795,0.64139 2.91326,1.01442 2.76359,1.37197 2.5697,1.70721 2.33537,2.01563 2.06438,2.29304 1.76088,2.53303 1.42904,2.73411 1.07565,2.89172 0.70451,3.00359 0.32239,3.06822 -0.0646,3.08447 -0.45052,3.05235 -0.82998,2.97147 -1.19547,2.84409 -0.77102,1.33569 0.0419,0.0227 -75.59055,130.92662 -0.0419,-0.0227 -0.7714,1.33606 -1.8652,2.45745 -2.15887,2.20422 -2.41776,1.91622 -2.63887,1.59837 -2.81839,1.2548 -2.95332,0.89159 -3.04214,0.51439 -3.08221,0.12926 z m -180.98872,-112.06677 -3.744,-0.63307 -3.63515,-1.09758 -3.46885,-1.54431 -3.24775,-1.96724 -2.97562,-2.35843 -2.65701,-2.71294 -2.29569,-3.02438 -1.89846,-3.28857 -1.47137,-3.50022 -1.02122,-3.65745 -0.55446,-3.75647 -0.0798,-3.79616 0.39685,-3.77612 0.86702,-3.69676 1.32359,-3.55918 1.75937,-3.36492 2.16719,-3.11773 2.5406,-2.82217 2.87433,-2.48088 3.16271,-2.10142 3.4012,-1.68832 3.58563,-1.24875 3.71415,-0.78954 3.78406,-0.31748 3.79351,0.15911 3.744,0.63307 3.63515,1.09758 3.46885,1.54431 3.24775,1.96687 2.976,2.3588 2.65663,2.71295 2.29568,3.02438 1.89846,3.28819 1.47137,3.50059 1.02123,3.65707 0.55483,3.75648 0.0794,3.79615 -0.39685,3.77651 -0.86702,3.69675 -1.32359,3.55881 -1.75937,3.36491 -2.16718,3.11811 -2.5406,2.8218 -2.87433,2.48126 -3.16271,2.10104 -3.4012,1.68831 -3.58564,1.24876 -3.71414,0.78954 -3.78406,0.31786 z m 375.43521,216.13497 -3.76743,-0.47592 -3.67748,-0.94431 -3.53046,-1.39782 -3.32749,-1.82926 -3.072,-2.23188 -2.76813,-2.5993 -2.42003,-2.92569 -2.0349,-3.20599 -1.6165,-3.4357 -1.17354,-3.61123 -0.71131,-3.72986 -0.23849,-3.78958 0.23849,-3.78958 0.71131,-3.72987 1.17354,-3.61122 1.6165,-3.43571 2.0349,-3.20598 2.42003,-2.9257 2.76813,-2.59929 3.072,-2.23189 3.32749,-1.82925 3.53046,-1.39782 3.67748,-0.94432 3.76743,-0.47591 h 3.79692 l 3.76743,0.47591 3.67748,0.94432 3.53046,1.39782 3.32749,1.82925 3.072,2.23189 2.76775,2.59929 2.42041,2.9257 2.0349,3.20598 1.6165,3.43571 1.17355,3.61122 0.7113,3.72987 0.23849,3.78958 -0.23849,3.78958 -0.7113,3.72986 -1.17355,3.61123 -1.6165,3.4357 -2.0349,3.20599 -2.42041,2.92569 -2.76775,2.5993 -3.072,2.23188 -3.32749,1.82926 -3.53046,1.39782 -3.67786,0.94431 -3.76705,0.47592 z M 57.285463,455.64887 v -0.0484 h -1.542425 l -3.06104,-0.38668 -2.988094,-0.76729 -2.868662,-1.13571 -2.703496,-1.48622 -2.495622,-1.81342 -2.249197,-2.11192 -1.966488,-2.37714 -1.653165,-2.60488 -1.313386,-2.79149 -0.953575,-2.9342 -0.57789,-3.0305 -0.193889,-3.0791 0.193889,-3.07899 0.57789,-3.03051 0.953575,-2.93419 1.313386,-2.79149 1.653165,-2.60489 1.966488,-2.37713 2.249197,-2.11192 2.495622,-1.81342 2.703496,-1.48622 2.868662,-1.13572 2.988094,-0.76728 3.06104,-0.38668 h 1.542425 v -0.0485 H 208.46657 v 0.0484 h 1.54243 l 3.06104,0.38668 2.98809,0.76728 2.86866,1.13571 2.7035,1.48623 2.496,1.81341 2.24882,2.11193 1.96649,2.37713 1.65316,2.60489 1.31339,2.79148 0.95357,2.9342 0.57789,3.0305 0.19389,3.07911 -0.19389,3.07899 -0.57789,3.0305 -0.95357,2.9342 -1.31339,2.79148 -1.65316,2.60489 -1.96649,2.37713 -2.24882,2.11193 -2.496,1.81342 -2.7035,1.48622 -2.86866,1.13571 -2.98809,0.76728 -3.06104,0.38669 h -1.54243 v 0.0485 z m 263.380357,-5.7066 -2.35448,-0.29745 -2.29857,-0.59013 -2.20657,-0.87368 -2.07961,-1.14327 -1.92,-1.39495 -1.72996,-1.62451 -1.51268,-1.82858 -1.27166,-2.00371 -1.01046,-2.14734 -0.73334,-2.25706 -0.4447,-2.33114 -0.14903,-2.36851 0.14903,-2.36848 0.4447,-2.33114 0.73334,-2.25706 1.01046,-2.14734 1.27166,-2.00371 1.51268,-1.82857 1.72996,-1.62452 1.92,-1.39495 2.07961,-1.14327 2.20657,-0.87367 2.29857,-0.59014 2.35448,-0.29745 h 2.37316 l 2.35448,0.29745 2.29857,0.59014 2.20657,0.87367 2.07961,1.14327 1.92,1.39495 1.72996,1.62452 1.51268,1.82857 1.27166,2.00371 1.01046,2.14734 0.73334,2.25706 0.4447,2.33114 0.14903,2.36848 -0.14903,2.36848 -0.4447,2.33113 -0.73334,2.25706 -1.01046,2.14734 -1.27166,2.00372 -1.51268,1.82857 -1.72996,1.62452 -1.92,1.39494 -2.07961,1.14327 -2.20657,0.87368 -2.29857,0.59014 -2.35448,0.29744 z m 130.90223,234.69381 -3.04214,-0.51477 -2.95332,-0.89159 -2.81839,-1.2548 -2.63887,-1.59837 -2.41776,-1.91622 -2.15887,-2.20422 -1.8652,-2.45745 -0.7714,-1.33568 -0.0419,0.0227 -75.59044,-130.92662 0.042,-0.0265 -0.77129,-1.33568 -1.19557,-2.8441 -0.82965,-2.97146 -0.45063,-3.05197 -0.0647,-3.08447 0.32251,-3.06822 0.7045,-3.00359 1.07539,-2.89172 1.4293,-2.73411 1.76077,-2.53342 2.06442,-2.29266 2.33537,-2.016 2.5697,-1.70721 2.76321,-1.37197 2.91364,-1.01442 3.01757,-0.64139 3.07465,-0.25814 3.08221,0.12926 3.04214,0.51439 2.95332,0.89159 2.81839,1.25481 2.63887,1.59836 2.41776,1.91622 2.15887,2.20422 1.8652,2.45745 0.7714,1.33606 0.0419,-0.0227 75.59055,130.92662 -0.0419,0.0227 0.77102,1.33568 1.19547,2.8441 0.82998,2.97146 0.45052,3.05235 0.0646,3.08447 -0.32239,3.06822 -0.70451,3.00359 -1.07565,2.89172 -1.42904,2.73411 -1.76088,2.53304 -2.06438,2.29304 -2.33537,2.01562 -2.5697,1.70721 -2.76359,1.37197 -2.91326,1.01442 -3.01795,0.64139 -3.07427,0.25814 z m -258.85719,-7.6131 -3.71415,-0.78954 -3.58563,-1.24876 -3.4012,-1.68831 -3.16271,-2.10142 -2.87433,-2.48088 -2.5406,-2.82218 -2.16718,-3.11773 -1.75937,-3.36491 -1.3236,-3.55918 -0.86702,-3.69676 -0.39685,-3.77613 0.0798,-3.79615 0.55446,-3.75648 1.02123,-3.65744 1.47137,-3.50023 1.89845,-3.28856 2.29569,-3.02438 2.65701,-2.71295 2.97562,-2.35842 3.24775,-1.96724 3.46885,-1.54432 3.63515,-1.09757 3.744,-0.63308 3.79351,-0.15911 3.78406,0.31785 3.71414,0.78955 3.58564,1.24875 3.4012,1.68832 3.16271,2.10104 2.87433,2.48126 2.5406,2.82179 2.16718,3.11811 1.75937,3.36492 1.32359,3.5588 0.86702,3.69676 0.39685,3.7765 -0.0794,3.79616 -0.55483,3.75647 -1.02123,3.65707 -1.47137,3.5006 -1.89846,3.28819 -2.29568,3.02438 -2.65663,2.71294 -2.976,2.35881 -3.24775,1.96686 -3.46885,1.54432 -3.63515,1.09757 -3.744,0.63307 -3.79351,0.15912 z"
     id="path4"
     inkscape:connector-curvature="0"
     style="fill:#d3d3d3;stroke:#000000;stroke-width:0.49999997" />
</svg>
