<?xml version="1.0" encoding="UTF-8" standalone="no"?>
<svg
   xmlns:dc="http://purl.org/dc/elements/1.1/"
   xmlns:cc="http://creativecommons.org/ns#"
   xmlns:rdf="http://www.w3.org/1999/02/22-rdf-syntax-ns#"
   xmlns:svg="http://www.w3.org/2000/svg"
   xmlns="http://www.w3.org/2000/svg"
   xmlns:sodipodi="http://sodipodi.sourceforge.net/DTD/sodipodi-0.dtd"
   xmlns:inkscape="http://www.inkscape.org/namespaces/inkscape"
   width="8.5in"
   height="11in"
   viewBox="-90 -90 816 1056"
   version="1.1"
   id="svg6"
   sodipodi:docname="plate2.svg"
   inkscape:version="0.92.2 (5c3e80d, 2017-08-06)">
  <metadata
     id="metadata12">
    <rdf:RDF>
      <cc:Work
         rdf:about="">
        <dc:format>image/svg+xml</dc:format>
        <dc:type
           rdf:resource="http://purl.org/dc/dcmitype/StillImage" />
        <dc:title>OpenSCAD Model</dc:title>
      </cc:Work>
    </rdf:RDF>
  </metadata>
  <defs
     id="defs10" />
  <sodipodi:namedview
     pagecolor="#ffffff"
     bordercolor="#666666"
     borderopacity="1"
     objecttolerance="10"
     gridtolerance="10"
     guidetolerance="10"
     inkscape:pageopacity="0"
     inkscape:pageshadow="2"
     inkscape:window-width="3840"
     inkscape:window-height="2066"
     id="namedview8"
     showgrid="false"
     units="in"
     inkscape:zoom="0.65555556"
     inkscape:cx="772.43859"
     inkscape:cy="-291.8063"
     inkscape:window-x="-11"
     inkscape:window-y="-6"
     inkscape:window-maximized="1"
     inkscape:current-layer="svg6" />
  <title
     id="title2">OpenSCAD Model</title>
  <path
     d="m -7.6271227,463.11584 2.682331,42.63307 8.004283,41.96069 13.2003777,40.62652 18.188221,38.65172 22.889197,36.06765 27.228851,32.91402 31.139532,29.2422 34.55924,25.10854 37.43357,20.57915 39.71755,15.72548 41.37524,10.6235 42.38041,5.3537 h 42.71736 l 42.38041,-5.3537 41.37524,-10.6235 39.71755,-15.72548 37.43357,-20.57915 34.55925,-25.10854 31.13952,-29.2422 27.22885,-32.91402 22.8892,-36.06765 18.18822,-38.65172 13.20038,-40.62652 8.00428,-41.96069 2.68233,-42.63307 -2.68233,-42.63307 -8.00428,-41.9607 -13.20038,-40.62652 -18.18822,-38.65171 -22.8892,-36.06766 -27.22885,-32.91401 -31.13952,-29.24221 -34.55925,-25.10853 -37.43357,-20.57915 -39.71755,-15.72549 -41.37524,-10.62349 -42.38041,-5.3537 h -42.71736 l -42.38041,5.3537 -41.37524,10.62349 -39.71755,15.72549 -37.43357,20.57915 -34.55924,25.10853 -31.139532,29.24221 -27.228851,32.91401 -22.889197,36.06766 -18.188221,38.65171 -13.2003777,40.62652 -8.004283,41.9607 z m 51.0236227,0 0.193889,-3.07907 0.57789,-3.03046 0.953575,-2.93416 1.313386,-2.79153 1.653165,-2.60485 1.966488,-2.37717 2.248819,-2.11192 2.496,-1.81338 2.703496,-1.4863 2.868662,-1.13571 2.988094,-0.76724 3.06104,-0.38665 h 1.542425 v -0.0485 H 219.14453 v 0.0484 h 1.54243 l 3.06104,0.38664 2.98809,0.76725 2.86866,1.13571 2.7035,1.4863 2.496,1.81337 2.24882,2.11193 1.96649,2.37717 1.65316,2.60485 1.31339,2.79152 0.95357,2.93416 0.57789,3.03047 0.19389,3.07918 -0.19389,3.07907 -0.57789,3.03046 -0.95357,2.93416 -1.31339,2.79152 -1.65316,2.60485 -1.96649,2.37717 -2.24882,2.11193 -2.496,1.81338 -2.7035,1.4863 -2.86866,1.13571 -2.98809,0.76724 -3.06104,0.38665 h -1.54243 v 0.0485 H 67.963429 v -0.0484 h -1.542425 l -3.06104,-0.38665 -2.988094,-0.76724 -2.868662,-1.13571 -2.703496,-1.4863 -2.496,-1.81338 -2.248819,-2.11192 -1.966488,-2.37718 -1.653165,-2.60485 -1.313386,-2.79152 -0.953575,-2.93416 -0.57789,-3.03046 z m 103.98992,218.56139 0.15912,-7.5927 1.10929,-7.51256 2.04246,-7.31452 2.94274,-7.00082 3.79729,-6.57676 4.59137,-6.04913 5.31326,-5.42551 5.95162,-4.71723 6.49588,-3.93411 6.93732,-3.08863 7.2703,-2.19515 7.48762,-1.26652 7.58778,-0.31786 7.56737,0.63534 7.42828,1.57908 7.17166,2.49752 6.80239,3.37663 6.32542,4.20245 5.74866,4.96214 5.08157,5.6436 4.33399,6.23584 3.51836,6.7302 2.64718,7.11799 1.73405,7.39351 0.79408,7.55263 -0.15912,7.59231 -1.10929,7.51295 -2.04246,7.31414 -2.94274,7.00082 -3.79729,6.57676 -4.59137,6.04913 -5.31326,5.42589 -5.95162,4.71723 -6.49588,3.93373 -6.93732,3.08901 -7.2703,2.19477 -7.48762,1.26652 -7.58778,0.31824 -7.56737,-0.63572 -7.42828,-1.57871 -7.17166,-2.49751 -6.80239,-3.37663 -6.32542,-4.20246 -5.74866,-4.96252 -5.08157,-5.64359 -4.33399,-6.23584 -3.51836,-6.72983 -2.64718,-7.11798 -1.73405,-7.39351 z m 0,-437.12278 0.79408,-7.55263 1.73405,-7.39351 2.64718,-7.11799 3.51836,-6.72982 4.33399,-6.23585 5.08157,-5.64359 5.74866,-4.96252 6.32542,-4.20245 6.80239,-3.37663 7.17166,-2.49752 7.42828,-1.5787 7.56737,-0.63572 7.58778,0.31824 7.48762,1.26652 7.2703,2.19477 6.93732,3.08901 6.49588,3.93373 5.95162,4.71723 5.31326,5.42589 4.59137,6.04913 3.79729,6.57676 2.94274,7.00081 2.04246,7.31415 1.10929,7.51294 0.15912,7.59232 -0.79408,7.55263 -1.73405,7.39351 -2.64718,7.11798 -3.51836,6.73021 -4.33399,6.23584 -5.08157,5.64359 -5.74866,4.96214 -6.32542,4.20246 -6.80239,3.37663 -7.17166,2.49751 -7.42828,1.57909 -7.56737,0.63534 -7.58778,-0.31786 -7.48762,-1.26652 -7.2703,-2.19515 -6.93732,-3.08863 -6.49588,-3.93411 -5.95162,-4.71723 -5.31326,-5.42551 -4.59137,-6.04914 -3.79729,-6.57675 -2.94274,-7.00082 -2.04246,-7.31452 -1.10929,-7.51257 z m 166.2463,218.56139 0.14903,-2.36852 0.44466,-2.33114 0.73338,-2.25702 1.01046,-2.14734 1.27162,-2.00375 1.51272,-1.82857 1.72996,-1.62456 1.91996,-1.39491 2.07961,-1.14327 2.20657,-0.87363 2.29861,-0.59022 2.35447,-0.29744 h 2.37318 l 2.35447,0.29744 2.29861,0.59022 2.20657,0.87363 2.07961,1.14327 1.91996,1.39491 1.72996,1.62456 1.51272,1.82857 1.27162,2.00375 1.01046,2.14734 0.73338,2.25702 0.44466,2.33114 0.14903,2.36852 -0.14903,2.36851 -0.44466,2.33114 -0.73338,2.25702 -1.01046,2.14734 -1.27162,2.00375 -1.51272,1.82858 -1.72996,1.62455 -1.91996,1.39491 -2.07961,1.14327 -2.20657,0.87364 -2.29861,0.59021 -2.35447,0.29745 h -2.37318 l -2.35447,-0.29745 -2.29861,-0.59021 -2.20657,-0.87364 -2.07961,-1.14327 -1.91996,-1.39491 -1.72996,-1.62455 -1.51272,-1.82858 -1.27162,-2.00375 -1.01046,-2.14734 -0.73338,-2.25702 -0.44466,-2.33114 z m 51.04517,97.16636 0.3225,-3.06822 0.70447,-3.00359 1.07543,-2.89172 1.4293,-2.73411 1.76073,-2.53341 2.06442,-2.29267 2.33537,-2.016 2.5697,-1.70721 2.76321,-1.37159 2.91364,-1.0148 3.01795,-0.64139 3.07427,-0.25814 3.08221,0.12926 3.04214,0.51439 2.95332,0.89159 2.81839,1.25481 2.63887,1.59836 2.41776,1.91622 2.15887,2.20422 1.8652,2.45745 0.7714,1.33606 0.0419,-0.0227 75.59055,130.92661 -0.0419,0.0227 0.77102,1.33568 1.19547,2.8441 0.82998,2.97184 0.45052,3.05197 0.0646,3.08447 -0.32239,3.06822 -0.70451,3.00359 -1.07565,2.89172 -1.42904,2.73411 -1.76088,2.53304 -2.06438,2.29304 -2.33537,2.01562 -2.5697,1.70721 -2.76321,1.37197 -2.91364,1.01443 -3.01795,0.64138 -3.07427,0.25852 -3.08221,-0.12926 -3.04214,-0.51477 -2.95332,-0.89159 -2.81839,-1.2548 -2.63887,-1.59837 -2.41776,-1.91622 -2.15887,-2.20422 -1.8652,-2.45745 -0.7714,-1.33568 -0.0419,0.0227 -75.59044,-130.92662 0.042,-0.0265 -0.77129,-1.33568 -1.19554,-2.8441 -0.82964,-2.97146 -0.45067,-3.05197 z m 0,-194.33273 0.0646,-3.08447 0.45067,-3.05197 0.82964,-2.97146 1.19554,-2.8441 0.77129,-1.33568 -0.042,-0.0265 75.59044,-130.92661 v 0 0 l 0.0419,0.0227 0.7714,-1.33568 1.8652,-2.45745 2.15887,-2.20422 2.41776,-1.91622 2.63887,-1.59836 2.81839,-1.25481 2.95332,-0.89159 3.04214,-0.51477 3.08221,-0.12926 3.07427,0.25852 3.01795,0.64139 2.91364,1.01442 2.76321,1.37197 v 0 0 l 2.5697,1.70721 2.33537,2.01563 2.06438,2.29304 1.76088,2.53303 1.42904,2.73411 1.07565,2.89172 0.70451,3.00359 0.32239,3.06822 -0.0646,3.08447 -0.45052,3.05197 -0.82998,2.97185 -1.19547,2.84409 -0.77102,1.33569 0.0419,0.0227 v 0 l -75.59055,130.92662 -0.0419,-0.0227 -0.7714,1.33606 -1.8652,2.45745 -2.15887,2.20422 -2.41776,1.91622 -2.63887,1.59837 -2.81839,1.2548 -2.95332,0.89159 -3.04214,0.51439 -3.08221,0.12926 -3.07427,-0.25814 -3.01795,-0.64138 -2.91364,-1.01481 -2.76321,-1.37159 v 0 l -2.5697,-1.70721 -2.33537,-2.016 -2.06442,-2.29266 -1.76073,-2.53342 -1.4293,-2.73411 -1.07543,-2.89172 -0.70447,-3.00359 z m 156.82885,97.16637 v 0 l 0.47698,-7.5792 1.42299,-7.45969 2.34671,-7.22249 3.23338,-6.87145 4.06904,-6.41197 4.84082,-5.85161 5.53588,-5.19836 6.144,-4.46363 6.65461,-3.65858 7.06091,-2.79572 7.35572,-1.88863 7.53449,-0.95168 h 7.59383 l 7.53448,0.95168 7.35572,1.88863 7.06091,2.79572 6.65462,3.65858 6.144,4.46363 5.53587,5.19836 4.84082,5.85161 4.06904,6.41197 3.23339,6.87145 2.3467,7.22249 1.423,7.45969 0.47697,7.5792 v 0 0 l -0.47697,7.5792 -1.423,7.45969 -2.3467,7.22249 -3.23339,6.87144 -4.06904,6.41197 -4.84082,5.85162 -5.53587,5.19836 -6.144,4.46362 -6.65462,3.65858 -7.06091,2.79572 -7.35572,1.88863 -7.53448,0.95169 h -7.59383 l -7.53449,-0.95169 -7.35572,-1.88863 -7.06091,-2.79572 -6.65461,-3.65858 -6.144,-4.46362 -5.53588,-5.19836 -4.84082,-5.85162 -4.06904,-6.41197 -3.23338,-6.87144 -2.34671,-7.22249 -1.42299,-7.45969 z"
     id="path4"
     inkscape:connector-curvature="0"
     style="fill:#d3d3d3;stroke:#000000;stroke-width:0.49999997" />
</svg>
